<svg width="24" height="24" viewBox="0 0 24 24" xmlns="http://www.w3.org/2000/svg" aria-label="Иконка токарного патрона">
              <title>LOGO - lukichev-detal.ru </title>
              <circle cx="12" cy="12" r="11" fill="currentColor" style="opacity: 0.6;"/>
              <g fill="currentColor" style="opacity: 0.8;"><circle cx="7.5" cy="7.5" r="1.25"/><circle cx="16.5" cy="7.5" r="1.25"/><circle cx="7.5" cy="16.5" r="1.25"/><circle cx="16.5" cy="16.5" r="1.25"/></g>
              <g fill="currentColor" style="opacity: 0.8;"><rect x="9" y="3" width="6" height="7" rx="1"/><rect x="9" y="14" width="6" height="7" rx="1"/><rect x="3" y="9" width="7" height="6" rx="1"/><rect x="14" y="9" width="7" height="6" rx="1"/></g>
              <g fill="currentColor"><path d="M10 9H14L13.5 10.5H10.5L10 9Z"/><path d="M10 15H14L13.5 13.5H10.5L10 15Z"/><path d="M9 10V14L10.5 13.5V10.5L9 10Z"/><path d="M15 10V14L13.5 13.5V10.5L15 10Z"/></g>
</svg>